PathFileType	4	(X/Y/Z)	./resultDataOpenSim/trcMotMarkerGrf/sub10/qtm-01-07.trc
DataRate	CameraRate	NumFrames	NumMarkers	Units	OrigDataRate	OrigDataStartFrame	OrigNumFrames
250.000000	250.000000	7	24	m	250.000000	349	464
Frame#	Time	L.Toe.Tip			R.Toe.Tip			L.Ankle.Lat			R.Ankle.Lat			L.Ankle.Med			R.Ankle.Med			L.Heel			R.Heel			L.Knee.Lat			R.Knee.Lat			L.Knee.Med			R.Knee.Med			L.Thigh.Upper			R.Thigh.Upper			L.ASIS			R.ASIS			V.Sacral			L.Acromium			R.Acromium			C7			L.Elbow			R.Elbow			L.Wrist.Lat			R.Wrist.Lat
		X1	Y1	Z1	X2	Y2	Z2	X3	Y3	Z3	X4	Y4	Z4	X5	Y5	Z5	X6	Y6	Z6	X7	Y7	Z7	X8	Y8	Z8	X9	Y9	Z9	X10	Y10	Z10	X11	Y11	Z11	X12	Y12	Z12	X13	Y13	Z13	X14	Y14	Z14	X15	Y15	Z15	X16	Y16	Z16	X17	Y17	Z17	X18	Y18	Z18	X19	Y19	Z19	X20	Y20	Z20	X21	Y21	Z21	X22	Y22	Z22	X23	Y23	Z23	X24	Y24	Z24

349	1.392	0.59968008	0.06784644	-0.041615874	0.86060165	0.038902394	0.093496946	0.52199153	0.17995124	-0.049551077	0.71926661	0.052690044	0.13960484	0.55840155	0.18395181	0.026869048	0.73475546	0.083941619	0.057491813	0.46291161	0.1979856	0.0072101456	0.66712425	0.030989032	0.095792209	0.78494501	0.44792964	-0.1072812	0.77375331	0.45452407	0.18540199	0.8221293	0.41562408	0.0060975823	0.75816769	0.4602519	0.055860013	0.72028482	0.82399717	-0.14132971	0.78223902	0.87612877	0.23258839	0.79051501	0.9425557	-0.099546931	0.83661677	0.96587143	0.1434069	0.61880532	0.96292864	0.063010863	0.71184995	1.4185761	-0.13295725	0.71083118	1.4179996	0.19768548	0.62409325	1.4432442	0.027137051	0.64922064	1.0748579	-0.18954269	0.60922227	1.0877169	0.24826392	0.82594915	0.90140186	-0.19948813	0.69640951	0.87043214	0.31362152
350	1.396	0.61871444	0.066558178	-0.041836058	0.86060812	0.038894049	0.093571347	0.5375837	0.17608823	-0.048791128	0.71924342	0.052798684	0.13962517	0.57471737	0.18068884	0.027332137	0.73485546	0.084131816	0.057542754	0.47801948	0.19235106	0.0081211138	0.66692557	0.031109033	0.095789562	0.79575958	0.44970076	-0.10645195	0.77442934	0.45451789	0.18596578	0.83301905	0.41775484	0.0067950493	0.75969203	0.46036285	0.056599543	0.72767295	0.82502723	-0.14137064	0.78598619	0.87589339	0.232895	0.79692513	0.94397155	-0.098766205	0.84143174	0.96603389	0.14415254	0.62457472	0.96389742	0.062560509	0.71755085	1.4192568	-0.13293916	0.7167132	1.4187459	0.19763034	0.62990364	1.4439169	0.027199412	0.65340442	1.0759324	-0.18948898	0.61737908	1.0874073	0.24951707	0.82803295	0.90047247	-0.19977175	0.70809406	0.8712916	0.3140402
351	1.4	0.63770073	0.065247038	-0.042108942	0.86061602	0.038884834	0.093646219	0.55331932	0.17213484	-0.048003577	0.71921796	0.052903462	0.13964726	0.59130792	0.17732645	0.027740492	0.73496202	0.084318211	0.057596877	0.49335299	0.18661818	0.0090088675	0.66651786	0.031195225	0.095904665	0.806485	0.45142663	-0.10563638	0.77508793	0.45453019	0.18654503	0.84375346	0.41987717	0.0074810688	0.76151422	0.46047335	0.05741988	0.73502134	0.82603595	-0.14148461	0.78978325	0.87568922	0.23320674	0.80337695	0.94533062	-0.097942749	0.84621951	0.96615104	0.14491877	0.63052374	0.96479817	0.06230447	0.72325625	1.4198775	-0.13292566	0.72258141	1.4194288	0.19758673	0.63570387	1.4445219	0.027261456	0.65746789	1.0768801	-0.18978573	0.62566153	1.0871	0.25073801	0.83009601	0.89950719	-0.20008772	0.719821	0.87216726	0.31443729
352	1.404	0.65668458	0.063945764	-0.042436773	0.86063199	0.038875381	0.093718988	0.56924083	0.1681085	-0.047227991	0.71919004	0.053003247	0.13966837	0.60783234	0.17389219	0.028224192	0.73508304	0.084500077	0.05765442	0.50889004	0.18076682	0.0099207358	0.66607322	0.031282366	0.096060719	0.81715244	0.45303814	-0.10488534	0.77572142	0.45455692	0.18712813	0.8543802	0.42199113	0.0081917829	0.76324271	0.46057737	0.058135937	0.74232971	0.8269978	-0.14164839	0.79356431	0.87548343	0.23347047	0.80986504	0.94661375	-0.097081857	0.85097883	0.96622051	0.14570616	0.63688579	0.96552128	0.062374078	0.72896391	1.4204272	-0.13291773	0.728435	1.4200443	0.19755188	0.64149913	1.4450525	0.027328176	0.66155436	1.0777417	-0.19022594	0.63395295	1.0867905	0.25191924	0.83213728	0.89850398	-0.20044567	0.73155715	0.873052	0.31480564
353	1.408	0.67572821	0.062683804	-0.042819319	0.86065725	0.038864116	0.093790941	0.58534295	0.16401349	-0.046468959	0.71916694	0.053103266	0.13968674	0.62423736	0.1703905	0.028806779	0.73525843	0.084678408	0.057697203	0.52464146	0.17476892	0.010897267	0.66584159	0.031414663	0.096112537	0.82782292	0.454511	-0.10423409	0.77632557	0.45459752	0.18770522	0.8649216	0.42408941	0.0089388328	0.76473598	0.46065758	0.058673137	0.74960968	0.82790144	-0.14186129	0.79729359	0.87525247	0.2336631	0.81639027	0.94778403	-0.096194537	0.85570561	0.96624197	0.1465149	0.64343327	0.96599278	0.062525366	0.73467663	1.4209	-0.13290587	0.73427117	1.4205883	0.19751822	0.64729736	1.4455175	0.02739996	0.66597114	1.0785849	-0.19021902	0.64215594	1.0864501	0.25304869	0.8341507	0.89746537	-0.20085365	0.7432977	0.87394401	0.31513989
354	1.412	0.69488674	0.061461791	-0.043271333	0.860689	0.038848576	0.093866134	0.60160001	0.1598505	-0.04571864	0.71917143	0.053215367	0.13970073	0.64066762	0.16682833	0.029438974	0.73553281	0.08485134	0.057702404	0.54065072	0.16863624	0.01189979	0.66588684	0.031586504	0.096000236	0.83853097	0.45585787	-0.1036843	0.77687443	0.45465119	0.18825584	0.87536533	0.42615721	0.0097036585	0.76615067	0.46070232	0.059115996	0.75684148	0.82876317	-0.14215509	0.800974	0.87499283	0.23379794	0.82299977	0.9487929	-0.09529884	0.86039849	0.96621762	0.14734399	0.64961257	0.96624225	0.062308789	0.7403916	1.4212968	-0.13288668	0.74009277	1.4210609	0.19748498	0.65309889	1.4459247	0.027472836	0.67102584	1.0794381	-0.18914935	0.65026134	1.0860629	0.25413834	0.83613942	0.89639418	-0.20129835	0.75505611	0.87484497	0.31543978
355	1.416	0.71416017	0.06026617	-0.043803116	0.86072364	0.038830582	0.093946636	0.61800675	0.15562805	-0.044980622	0.7192156	0.05334468	0.13970926	0.65722682	0.1632275	0.030087965	0.7359228	0.085016819	0.057659713	0.55697507	0.16243099	0.012787614	0.66608822	0.031755633	0.09578689	0.84921943	0.45711442	-0.10319546	0.7773	0.45471494	0.18873824	0.88569863	0.42818308	0.010467119	0.76768349	0.46070614	0.059591258	0.76400318	0.8296101	-0.14252938	0.8046227	0.87471058	0.23390035	0.82974379	0.94960495	-0.094413695	0.86505723	0.96614731	0.14819149	0.65509702	0.96638786	0.061547657	0.74610227	1.4216235	-0.13286417	0.74590454	1.4214631	0.19745587	0.65889656	1.4462704	0.027541538	0.6767676	1.0802594	-0.18701909	0.65830547	1.085642	0.25520837	0.83812262	0.89528651	-0.20174067	0.76683509	0.87575625	0.31570838
